<svg width="21" height="20" viewBox="0 0 21 20" fill="none" xmlns="http://www.w3.org/2000/svg">
<path fill-rule="evenodd" clip-rule="evenodd" d="M10.979 0C16.502 0 20.979 4.477 20.979 10C20.979 15.523 16.502 20 10.979 20C5.456 20 0.979004 15.523 0.979004 10C0.979004 4.477 5.456 0 10.979 0ZM11.479 11H5.279C5.01379 11 4.75943 11.1054 4.5719 11.2929C4.38436 11.4804 4.279 11.7348 4.279 12C4.279 12.2652 4.38436 12.5196 4.5719 12.7071C4.75943 12.8946 5.01379 13 5.279 13H5.793L5.506 13.511C5.44179 13.6256 5.40078 13.7518 5.38532 13.8823C5.36987 14.0128 5.38027 14.1451 5.41592 14.2715C5.45158 14.398 5.5118 14.5162 5.59314 14.6194C5.67449 14.7226 5.77536 14.8088 5.89 14.873C6.00465 14.9372 6.13082 14.9782 6.26131 14.9937C6.3918 15.0091 6.52406 14.9987 6.65053 14.9631C6.77701 14.9274 6.89522 14.8672 6.99842 14.7859C7.10162 14.7045 7.18779 14.6036 7.252 14.489L8.085 13H11.479C11.7442 13 11.9986 12.8946 12.1861 12.7071C12.3736 12.5196 12.479 12.2652 12.479 12C12.479 11.7348 12.3736 11.4804 12.1861 11.2929C11.9986 11.1054 11.7442 11 11.479 11ZM13.372 8.011C13.249 7.78517 13.0437 7.61541 12.7988 7.53699C12.5539 7.45857 12.2882 7.47751 12.0569 7.58988C11.8256 7.70225 11.6464 7.89942 11.5567 8.14041C11.467 8.38141 11.4735 8.64771 11.575 8.884L11.627 8.989L14.707 14.489C14.8317 14.7114 15.0367 14.8777 15.28 14.954C15.5233 15.0303 15.7866 15.0107 16.0159 14.8994C16.2453 14.788 16.4235 14.5932 16.514 14.3549C16.6045 14.1165 16.6006 13.8526 16.503 13.617L16.451 13.511L16.165 13.001H16.679C16.9354 13.003 17.1828 12.9065 17.3701 12.7313C17.5574 12.5561 17.6702 12.3156 17.6852 12.0596C17.7002 11.8036 17.6163 11.5516 17.4508 11.3557C17.2853 11.1598 17.0509 11.035 16.796 11.007L16.679 11H15.045L13.372 8.011ZM10.852 3.511C10.729 3.28517 10.5237 3.11541 10.2788 3.03699C10.0339 2.95857 9.76817 2.97751 9.53687 3.08988C9.30556 3.20225 9.12643 3.39942 9.03669 3.64041C8.94696 3.88141 8.95352 4.14771 9.055 4.384L9.106 4.489L9.833 5.786L8.026 9.012C7.90027 9.23474 7.86467 9.4972 7.92653 9.74539C7.98838 9.99358 8.14299 10.2086 8.35855 10.3463C8.57411 10.484 8.83423 10.5339 9.08542 10.4856C9.33661 10.4374 9.55977 10.2947 9.709 10.087L9.772 9.989L12.852 4.489C12.9794 4.26619 13.0163 4.00291 12.955 3.75366C12.8937 3.50442 12.7388 3.2883 12.5226 3.15004C12.3063 3.01178 12.0452 2.96197 11.7932 3.01092C11.5413 3.05987 11.3178 3.20383 11.169 3.413L11.106 3.511L10.979 3.74L10.852 3.513V3.511Z" fill="black"/>
</svg>
