<svg width="18" height="20" viewBox="0 0 18 20" fill="none" xmlns="http://www.w3.org/2000/svg">
<path d="M17.3485 11.0816L14.0827 12.9299L11.1535 10.0191L14.106 7.08495L17.3485 8.91995C17.5399 9.02816 17.6991 9.18524 17.8098 9.37514C17.9206 9.56503 17.979 9.78094 17.979 10.0008C17.979 10.2206 17.9206 10.4365 17.8098 10.6264C17.6991 10.8163 17.5399 10.9734 17.3485 11.0816ZM0.114331 0.769947C0.0524884 0.92008 0.0207756 1.08091 0.0209972 1.24328V18.7574C0.0209972 18.9383 0.0584972 19.1066 0.124331 19.2574L9.42016 10.0183L0.114331 0.769947ZM10.2868 9.15745L13.0018 6.45911L1.87516 0.162447C1.63667 0.0253932 1.35891 -0.0271648 1.08683 0.0132803L10.2868 9.15745ZM10.2868 10.8799L1.12016 19.9908C1.3685 20.0208 1.63016 19.9774 1.87516 19.8383L12.9785 13.5549L10.2868 10.8799Z" fill="black"/>
</svg>
