<svg width="15" height="16" viewBox="0 0 15 16" fill="none" xmlns="http://www.w3.org/2000/svg">
<path d="M9.75 15.5422C9.94891 15.5422 10.1397 15.4632 10.2803 15.3226C10.421 15.1819 10.5 14.9911 10.5 14.7922C10.5 14.5933 10.421 14.4026 10.2803 14.2619C10.1397 14.1213 9.94891 14.0422 9.75 14.0422H3.5C2.96957 14.0422 2.46086 13.8315 2.08579 13.4564C1.71071 13.0814 1.5 12.5727 1.5 12.0422V4.04224C1.5 3.5118 1.71071 3.0031 2.08579 2.62802C2.46086 2.25295 2.96957 2.04224 3.5 2.04224H9.75C9.94891 2.04224 10.1397 1.96322 10.2803 1.82257C10.421 1.68191 10.5 1.49115 10.5 1.29224C10.5 1.09332 10.421 0.902558 10.2803 0.761906C10.1397 0.621254 9.94891 0.542236 9.75 0.542236H3.5C2.57174 0.542236 1.6815 0.910985 1.02513 1.56736C0.368749 2.22374 0 3.11398 0 4.04224V12.0422C0 12.9705 0.368749 13.8607 1.02513 14.5171C1.6815 15.1735 2.57174 15.5422 3.5 15.5422H9.75ZM10.741 4.24124C10.8134 4.17438 10.8982 4.12243 10.9906 4.08836C11.083 4.05428 11.1813 4.03875 11.2797 4.04265C11.3781 4.04655 11.4748 4.06981 11.5643 4.11109C11.6537 4.15237 11.7342 4.21086 11.801 4.28324L14.801 7.53324C14.9291 7.67181 15.0002 7.85356 15.0002 8.04224C15.0002 8.23092 14.9291 8.41266 14.801 8.55124L11.801 11.8012C11.6659 11.9472 11.4783 12.0336 11.2795 12.0413C11.0807 12.049 10.887 11.9774 10.741 11.8422C10.595 11.7071 10.5087 11.5195 10.501 11.3207C10.4933 11.1219 10.5649 10.9282 10.7 10.7822L12.538 8.79124H4.75C4.55109 8.79124 4.36032 8.71222 4.21967 8.57157C4.07902 8.43091 4 8.24015 4 8.04124C4 7.84232 4.07902 7.65156 4.21967 7.51091C4.36032 7.37025 4.55109 7.29124 4.75 7.29124H12.537L10.699 5.30024C10.6321 5.22789 10.5802 5.14307 10.5461 5.05064C10.512 4.95821 10.4965 4.85997 10.5004 4.76154C10.5043 4.6631 10.5276 4.5664 10.5689 4.47695C10.6101 4.38751 10.6686 4.30807 10.741 4.24124Z" fill="#FF0000"/>
</svg>
