<svg width="21" height="21" viewBox="0 0 21 21" fill="none" xmlns="http://www.w3.org/2000/svg">
<path d="M20.9044 19.1027C19.2931 16.3183 16.7635 14.3646 13.8242 13.536C15.2533 12.8096 16.396 11.6231 17.0681 10.1678C17.7403 8.71246 17.9028 7.07317 17.5293 5.51424C17.1558 3.95531 16.2682 2.5676 15.0095 1.57487C13.7508 0.582131 12.1945 0.0422363 10.5915 0.0422363C8.98841 0.0422363 7.43209 0.582131 6.17342 1.57487C4.91476 2.5676 4.02713 3.95531 3.65365 5.51424C3.28016 7.07317 3.4426 8.71246 4.11477 10.1678C4.78694 11.6231 5.92966 12.8096 7.35867 13.536C4.41941 14.3636 1.88985 16.3173 0.278551 19.1027C0.234306 19.1723 0.204598 19.2501 0.191213 19.3315C0.177828 19.4129 0.181043 19.4961 0.200664 19.5762C0.220285 19.6563 0.255906 19.7316 0.305386 19.7976C0.354866 19.8636 0.417181 19.9189 0.488583 19.9602C0.559984 20.0014 0.638997 20.0278 0.720867 20.0378C0.802737 20.0477 0.885773 20.041 0.964979 20.018C1.04419 19.995 1.11792 19.9563 1.18176 19.9041C1.2456 19.8518 1.29821 19.7873 1.33644 19.7142C3.29425 16.3316 6.75329 14.3126 10.5915 14.3126C14.4296 14.3126 17.8887 16.3316 19.8465 19.7142C19.8847 19.7873 19.9373 19.8518 20.0012 19.9041C20.065 19.9563 20.1387 19.995 20.2179 20.018C20.2971 20.041 20.3802 20.0477 20.4621 20.0378C20.5439 20.0278 20.6229 20.0014 20.6943 19.9602C20.7657 19.9189 20.8281 19.8636 20.8775 19.7976C20.927 19.7316 20.9626 19.6563 20.9823 19.5762C21.0019 19.4961 21.0051 19.4129 20.9917 19.3315C20.9783 19.2501 20.9486 19.1723 20.9044 19.1027ZM4.68031 7.17848C4.68031 6.00937 5.027 4.86651 5.67652 3.89443C6.32605 2.92234 7.24924 2.1647 8.32936 1.7173C9.40948 1.26989 10.598 1.15283 11.7447 1.38092C12.8913 1.609 13.9446 2.17198 14.7713 2.99867C15.598 3.82536 16.1609 4.87862 16.389 6.02527C16.6171 7.17192 16.5 8.36046 16.0526 9.44058C15.6052 10.5207 14.8476 11.4439 13.8755 12.0934C12.9034 12.7429 11.7606 13.0896 10.5915 13.0896C9.02431 13.0877 7.52188 12.4643 6.41373 11.3562C5.30559 10.2481 4.6822 8.74563 4.68031 7.17848Z" fill="black"/>
</svg>
