<svg xmlns="http://www.w3.org/2000/svg" width="26" height="26" viewBox="0 0 26 26" fill="none">
  <path d="M13.0677 25.0423C11.3385 25.0423 9.71352 24.714 8.19269 24.0573C6.67185 23.4006 5.34894 22.5102 4.22394 21.386C3.09894 20.261 2.20852 18.9381 1.55269 17.4173C0.896855 15.8965 0.568521 14.2715 0.567688 12.5423C0.567688 10.8131 0.896021 9.18813 1.55269 7.6673C2.20935 6.14646 3.09977 4.82355 4.22394 3.69855C5.34894 2.57355 6.67185 1.68313 8.19269 1.0273C9.71352 0.371464 11.3385 0.0431307 13.0677 0.0422974C14.7969 0.0422974 16.4219 0.370631 17.9427 1.0273C19.4635 1.68396 20.7864 2.57438 21.9114 3.69855C23.0364 4.82355 23.9273 6.14646 24.5839 7.6673C25.2406 9.18813 25.5685 10.8131 25.5677 12.5423C25.5677 14.2715 25.2394 15.8965 24.5827 17.4173C23.926 18.9381 23.0356 20.261 21.9114 21.386C20.7864 22.511 19.4635 23.4019 17.9427 24.0585C16.4219 24.7152 14.7969 25.0431 13.0677 25.0423ZM13.3177 13.7923L12.1927 14.9173C11.9635 15.1465 11.8489 15.4381 11.8489 15.7923C11.8489 16.1465 11.9635 16.4381 12.1927 16.6673C12.4219 16.8965 12.7135 17.011 13.0677 17.011C13.4219 17.011 13.7135 16.8965 13.9427 16.6673L17.1927 13.4173C17.4427 13.1673 17.5677 12.8756 17.5677 12.5423C17.5677 12.209 17.4427 11.9173 17.1927 11.6673L13.9427 8.4173C13.7135 8.18813 13.4219 8.07355 13.0677 8.07355C12.7135 8.07355 12.4219 8.18813 12.1927 8.4173C11.9635 8.64646 11.8489 8.93813 11.8489 9.2923C11.8489 9.64646 11.9635 9.93813 12.1927 10.1673L13.3177 11.2923H9.31769C8.96352 11.2923 8.66644 11.4123 8.42644 11.6523C8.18644 11.8923 8.06685 12.189 8.06769 12.5423C8.06769 12.8965 8.18769 13.1935 8.42769 13.4335C8.66769 13.6735 8.96435 13.7931 9.31769 13.7923H13.3177Z" fill="#fff"/>
</svg>