<svg width="18" height="18" viewBox="0 0 18 18" fill="none" xmlns="http://www.w3.org/2000/svg">
<path d="M9.13135 17.1914C7.95551 17.1914 6.85051 16.9681 5.81635 16.5216C4.78218 16.0751 3.8826 15.4696 3.1176 14.7052C2.3526 13.9402 1.74711 13.0406 1.30115 12.0064C0.855181 10.9722 0.631914 9.86724 0.631348 8.69141C0.631348 7.51557 0.854614 6.41057 1.30115 5.37641C1.74768 4.34224 2.35316 3.44266 3.1176 2.67766C3.8826 1.91266 4.78218 1.30717 5.81635 0.861206C6.85051 0.41524 7.95551 0.191973 9.13135 0.191406C10.3072 0.191406 11.4122 0.414673 12.4463 0.861206C13.4805 1.30774 14.3801 1.91322 15.1451 2.67766C15.9101 3.44266 16.5159 4.34224 16.9624 5.37641C17.4089 6.41057 17.6319 7.51557 17.6313 8.69141C17.6313 9.86724 17.4081 10.9722 16.9615 12.0064C16.515 13.0406 15.9095 13.9402 15.1451 14.7052C14.3801 15.4702 13.4805 16.0759 12.4463 16.5225C11.4122 16.969 10.3072 17.192 9.13135 17.1914ZM9.30135 9.5414L8.53635 10.3064C8.38051 10.4622 8.3026 10.6606 8.3026 10.9014C8.3026 11.1422 8.38051 11.3406 8.53635 11.4964C8.69218 11.6522 8.89051 11.7302 9.13135 11.7302C9.37218 11.7302 9.57051 11.6522 9.72635 11.4964L11.9363 9.2864C12.1063 9.1164 12.1913 8.91807 12.1913 8.69141C12.1913 8.46474 12.1063 8.26641 11.9363 8.09641L9.72635 5.88641C9.57051 5.73057 9.37218 5.65266 9.13135 5.65266C8.89051 5.65266 8.69218 5.73057 8.53635 5.88641C8.38051 6.04224 8.3026 6.24057 8.3026 6.48141C8.3026 6.72224 8.38051 6.92057 8.53635 7.07641L9.30135 7.84141H6.58135C6.34051 7.84141 6.1385 7.92301 5.9753 8.08621C5.8121 8.24941 5.73078 8.45114 5.73135 8.69141C5.73135 8.93224 5.81295 9.13426 5.97615 9.29746C6.13935 9.46066 6.34108 9.54197 6.58135 9.5414H9.30135Z" fill="#001B0B"/>
</svg>
