<svg width="23" height="17" viewBox="0 0 23 17" fill="none" xmlns="http://www.w3.org/2000/svg">
<path id="Vector" d="M9.00456 1.00093C9.29155 1.28792 9.42931 1.63471 9.41783 2.04129C9.40635 2.44787 9.25664 2.79465 8.96868 3.08165L4.91487 7.13546L20.9149 7.13546C21.3214 7.13546 21.6625 7.27322 21.938 7.54873C22.2135 7.82425 22.3508 8.16481 22.3498 8.57044C22.3498 8.97701 22.2121 9.31806 21.9366 9.59357C21.6611 9.86909 21.3205 10.0064 20.9149 10.0054L4.91487 10.0054L9.00456 14.0951C9.29155 14.3821 9.43505 14.7231 9.43505 15.1182C9.43505 15.5133 9.29155 15.8539 9.00456 16.1399C8.71756 16.4269 8.37652 16.5704 7.98142 16.5704C7.58632 16.5704 7.24575 16.4269 6.95971 16.1399L0.394693 9.57492C0.251196 9.43142 0.149309 9.27597 0.0890408 9.10855C0.0287724 8.94114 -0.00088501 8.76177 7.24792e-05 8.57044C7.24792e-05 8.3791 0.0302086 8.19973 0.090477 8.03232C0.150745 7.8649 0.252151 7.70945 0.394693 7.56595L6.99559 0.965055C7.25867 0.701976 7.58728 0.570435 7.98142 0.570435C8.37556 0.570435 8.7166 0.713933 9.00456 1.00093Z" fill="#001B0B"/>
</svg>
