<svg width="25" height="26" viewBox="0 0 25 26" fill="none" xmlns="http://www.w3.org/2000/svg">
<g id="flat-color-icons:google">
<path id="Vector" d="M22.714 10.9599H21.8749V10.9166H12.4999V15.0833H18.3869C17.528 17.5088 15.2202 19.25 12.4999 19.25C9.04836 19.25 6.24992 16.4515 6.24992 13C6.24992 9.54842 9.04836 6.74998 12.4999 6.74998C14.0931 6.74998 15.5426 7.35102 16.6463 8.33279L19.5926 5.38644C17.7322 3.65258 15.2437 2.58331 12.4999 2.58331C6.74731 2.58331 2.08325 7.24738 2.08325 13C2.08325 18.7526 6.74731 23.4166 12.4999 23.4166C18.2525 23.4166 22.9166 18.7526 22.9166 13C22.9166 12.3015 22.8447 11.6198 22.714 10.9599Z" fill="#FFC107"/>
<path id="Vector_2" d="M3.28442 8.15154L6.70682 10.6614C7.63286 8.36873 9.87557 6.74998 12.5 6.74998C14.0933 6.74998 15.5428 7.35102 16.6464 8.33279L19.5928 5.38644C17.7323 3.65258 15.2438 2.58331 12.5 2.58331C8.49901 2.58331 5.02922 4.84217 3.28442 8.15154Z" fill="#FF3D00"/>
<path id="Vector_3" d="M12.5 23.4167C15.1906 23.4167 17.6354 22.387 19.4839 20.7125L16.2599 17.9844C15.1789 18.8064 13.8581 19.2511 12.5 19.25C9.79062 19.25 7.4901 17.5224 6.62344 15.1115L3.22656 17.7286C4.95052 21.1021 8.45156 23.4167 12.5 23.4167Z" fill="#4CAF50"/>
<path id="Vector_4" d="M22.7141 10.9599H21.875V10.9167H12.5V15.0834H18.387C17.9762 16.2377 17.2361 17.2465 16.2583 17.9849L16.2599 17.9839L19.4839 20.712C19.2557 20.9193 22.9167 18.2084 22.9167 13C22.9167 12.3016 22.8448 11.6198 22.7141 10.9599Z" fill="#1976D2"/>
</g>
</svg>
