<svg width="19" height="19" viewBox="0 0 19 19" fill="none" xmlns="http://www.w3.org/2000/svg">
<path d="M14.7049 13.1196L18.5 16.9138L17.2462 18.1676L13.452 14.3725C12.0402 15.5042 10.2842 16.1198 8.4748 16.1172C4.07271 16.1172 0.5 12.5445 0.5 8.1424C0.5 3.74031 4.07271 0.167603 8.4748 0.167603C12.8769 0.167603 16.4496 3.74031 16.4496 8.1424C16.4522 9.95179 15.8366 11.7078 14.7049 13.1196ZM12.9274 12.4621C14.0519 11.3056 14.68 9.75546 14.6774 8.1424C14.6774 4.71589 11.9013 1.93978 8.4748 1.93978C5.04829 1.93978 2.27218 4.71589 2.27218 8.1424C2.27218 11.5689 5.04829 14.345 8.4748 14.345C10.0879 14.3476 11.638 13.7195 12.7945 12.595L12.9274 12.4621Z" fill="#A7A7A7"/>
</svg>
