<svg width="31" height="30" viewBox="0 0 31 30" fill="none" xmlns="http://www.w3.org/2000/svg">
<g clip-path="url(#clip0_158_570)">
<path d="M30.3555 15C30.3555 6.71578 23.6397 0 15.3555 0C7.07125 0 0.355469 6.71566 0.355469 15C0.355469 22.4869 5.84078 28.6925 13.0117 29.8178V19.3359H9.20312V15H13.0117V11.6953C13.0117 7.93594 15.2512 5.85937 18.6774 5.85937C20.3186 5.85937 22.0352 6.15234 22.0352 6.15234V9.84375H20.1437C18.2802 9.84375 17.6992 11 17.6992 12.1863V15H21.8594L21.1943 19.3359H17.6992V29.8178C24.8702 28.6925 30.3555 22.487 30.3555 15Z" fill="#001B0B"/>
<path d="M21.1943 19.3359L21.8594 15H17.6992V12.1863C17.6992 10.9999 18.2804 9.84375 20.1438 9.84375H22.0352V6.15234C22.0352 6.15234 20.3186 5.85938 18.6774 5.85938C15.2512 5.85938 13.0117 7.93594 13.0117 11.6953V15H9.20312V19.3359H13.0117V29.8178C13.7871 29.9393 14.5707 30.0002 15.3555 30C16.1403 30.0002 16.9239 29.9393 17.6992 29.8178V19.3359H21.1943Z" fill="#fff"/>
</g>
<defs>
<clipPath id="clip0_158_570">
<rect width="30" height="30" fill="white" transform="translate(0.355469)"/>
</clipPath>
</defs>
</svg>
