<svg width="31" height="30" viewBox="0 0 31 30" fill="none" xmlns="http://www.w3.org/2000/svg">
<g filter="url(#filter0_d_158_577)">
<path d="M23.613 0H7.67554C3.79228 0 0.644287 3.148 0.644287 7.03125V22.9688C0.644287 26.852 3.79228 30 7.67554 30H23.613C27.4963 30 30.6443 26.852 30.6443 22.9688V7.03125C30.6443 3.148 27.4963 0 23.613 0Z" fill="#001B0B"/>
<path d="M23.613 0H7.67554C3.79228 0 0.644287 3.148 0.644287 7.03125V22.9688C0.644287 26.852 3.79228 30 7.67554 30H23.613C27.4963 30 30.6443 26.852 30.6443 22.9688V7.03125C30.6443 3.148 27.4963 0 23.613 0Z" fill="#001B0B"/>
<path d="M15.6453 3.28125C12.4628 3.28125 12.0633 3.2952 10.8133 3.35203C9.56577 3.40922 8.71417 3.60668 7.96909 3.89648C7.19823 4.19578 6.54444 4.59621 5.89312 5.24777C5.2412 5.89922 4.84077 6.55301 4.54054 7.32352C4.24991 8.06883 4.05222 8.92078 3.99608 10.1678C3.94019 11.4178 3.92554 11.8174 3.92554 15.0001C3.92554 18.1828 3.9396 18.581 3.99632 19.8309C4.05374 21.0785 4.2512 21.9301 4.54077 22.6752C4.8403 23.4461 5.24073 24.0998 5.8923 24.7512C6.54351 25.4031 7.19729 25.8045 7.96757 26.1038C8.71323 26.3936 9.56495 26.591 10.8123 26.6482C12.0623 26.705 12.4615 26.719 15.6439 26.719C18.8269 26.719 19.2251 26.705 20.475 26.6482C21.7226 26.591 22.5751 26.3936 23.3208 26.1038C24.0913 25.8045 24.7441 25.4031 25.3952 24.7512C26.0471 24.0998 26.4475 23.4461 26.7478 22.6755C27.0359 21.9301 27.2337 21.0783 27.2923 19.8312C27.3484 18.5812 27.363 18.1828 27.363 15.0001C27.363 11.8174 27.3484 11.418 27.2923 10.168C27.2337 8.92043 27.0359 8.06895 26.7478 7.32387C26.4475 6.55301 26.0471 5.89922 25.3952 5.24777C24.7434 4.59598 24.0915 4.19555 23.3201 3.8966C22.573 3.60668 21.7209 3.4091 20.4733 3.35203C19.2233 3.2952 18.8253 3.28125 15.6417 3.28125H15.6453ZM14.5941 5.39309C14.9061 5.39262 15.2543 5.39309 15.6453 5.39309C18.7744 5.39309 19.1451 5.40434 20.3808 5.46047C21.5233 5.51273 22.1435 5.70363 22.5566 5.86406C23.1035 6.07641 23.4934 6.33035 23.9033 6.74063C24.3135 7.15078 24.5673 7.54137 24.7802 8.08828C24.9407 8.50078 25.1318 9.12094 25.1838 10.2635C25.24 11.4989 25.2521 11.8699 25.2521 14.9974C25.2521 18.1249 25.24 18.4961 25.1838 19.7313C25.1316 20.8739 24.9407 21.4941 24.7802 21.9067C24.5679 22.4536 24.3135 22.843 23.9033 23.2529C23.4932 23.6631 23.1037 23.9169 22.5566 24.1294C22.144 24.2905 21.5233 24.4809 20.3808 24.5332C19.1454 24.5893 18.7744 24.6015 15.6453 24.6015C12.5162 24.6015 12.1453 24.5893 10.91 24.5332C9.76745 24.4805 9.14729 24.2896 8.73386 24.1291C8.18706 23.9167 7.79636 23.6629 7.3862 23.2527C6.97604 22.8425 6.72222 22.4529 6.50929 21.9057C6.34886 21.4931 6.15772 20.873 6.10569 19.7304C6.04956 18.495 6.03831 18.124 6.03831 14.9945C6.03831 11.8651 6.04956 11.496 6.10569 10.2606C6.15796 9.11801 6.34886 8.49785 6.50929 8.08477C6.72175 7.53785 6.97605 7.14727 7.38632 6.73711C7.79647 6.32695 8.18706 6.07301 8.73397 5.8602C9.14706 5.69906 9.76745 5.50863 10.91 5.45613C11.9911 5.40727 12.41 5.39262 14.5941 5.39016V5.39309ZM21.9008 7.33887C21.1244 7.33887 20.4946 7.96816 20.4946 8.74465C20.4946 9.52102 21.1244 10.1509 21.9008 10.1509C22.6772 10.1509 23.3071 9.52102 23.3071 8.74465C23.3071 7.96828 22.6772 7.3384 21.9008 7.3384V7.33887ZM15.6453 8.98195C12.3219 8.98195 9.62729 11.6766 9.62729 15.0001C9.62729 18.3237 12.3219 21.017 15.6453 21.017C18.9689 21.017 21.6626 18.3237 21.6626 15.0001C21.6626 11.6767 18.9687 8.98195 15.6451 8.98195H15.6453ZM15.6453 11.0938C17.8026 11.0938 19.5517 12.8426 19.5517 15.0001C19.5517 17.1574 17.8026 18.9064 15.6453 18.9064C13.4879 18.9064 11.7391 17.1574 11.7391 15.0001C11.7391 12.8426 13.4879 11.0938 15.6453 11.0938Z" fill="#fff"/>
</g>
<defs>
<filter id="filter0_d_158_577" x="-3.35571" y="0" width="38" height="38" filterUnits="userSpaceOnUse" color-interpolation-filters="sRGB">
<feFlood flood-opacity="0" result="BackgroundImageFix"/>
<feColorMatrix in="SourceAlpha" type="matrix" values="0 0 0 0 0 0 0 0 0 0 0 0 0 0 0 0 0 0 127 0" result="hardAlpha"/>
<feOffset dy="4"/>
<feGaussianBlur stdDeviation="2"/>
<feComposite in2="hardAlpha" operator="out"/>
<feColorMatrix type="matrix" values="0 0 0 0 0 0 0 0 0 0 0 0 0 0 0 0 0 0 0.25 0"/>
<feBlend mode="normal" in2="BackgroundImageFix" result="effect1_dropShadow_158_577"/>
<feBlend mode="normal" in="SourceGraphic" in2="effect1_dropShadow_158_577" result="shape"/>
</filter>
</defs>
</svg>
