<svg width="32" height="22" viewBox="0 0 32 22" fill="none" xmlns="http://www.w3.org/2000/svg">
<g clip-path="url(#clip0_158_573)">
<path d="M30.9533 3.43139C30.7739 2.76816 30.4238 2.16351 29.938 1.67766C29.4521 1.1918 28.8475 0.841697 28.1843 0.6622C25.7562 0 15.984 0 15.984 0C15.984 0 6.2114 0.0200444 3.78334 0.682244C3.1201 0.861752 2.51546 1.21188 2.02962 1.69775C1.54379 2.18363 1.19372 2.7883 1.01427 3.45156C0.279837 7.76576 -0.00506335 14.3396 1.03444 18.4812C1.2139 19.1445 1.56398 19.7491 2.04982 20.235C2.53565 20.7208 3.14028 21.0709 3.8035 21.2504C6.23157 21.9126 16.004 21.9126 16.004 21.9126C16.004 21.9126 25.7762 21.9126 28.2042 21.2504C28.8674 21.0709 29.4721 20.7208 29.958 20.235C30.4438 19.7491 30.7939 19.1445 30.9734 18.4812C31.748 14.1609 31.9867 7.5911 30.9533 3.43139Z" fill="#001B0B"/>
<path d="M12.8735 15.6518L20.9803 10.9563L12.8735 6.26074V15.6518Z" fill="#fff"/>
</g>
<defs>
<clipPath id="clip0_158_573">
<rect width="31.2889" height="22" fill="white" transform="translate(0.355469)"/>
</clipPath>
</defs>
</svg>
